<svg xmlns="http://www.w3.org/2000/svg" viewBox="0 0 1530 746" preserveAspectRatio="xMidYMid" width="1530" height="746" xmlns:xlink="http://www.w3.org/1999/xlink" style="shape-rendering:auto;display:block;background-position-x:0%;background-position-y:0%;background-size:auto;background-origin:padding-box;background-clip:border-box;background:scroll rgb(143, 200, 255) none  repeat;width:1530px;height:746px;;animation:none"><g><g><path fill="#2a7bd3" d="M1530 0L1193.3650271135841 0C282.3892653078536 0 7.503148885581277 746 7.503148885581277 746 L1530 746 Z" style="fill:rgb(42, 123, 211);;animation:none"></path>
<path fill="rgb(42, 123, 211)" d="M 1530 0 L 1193.36 0 C 282.389 0 7.50315 746 7.50315 746 L 1530 746 Z" style="fill:rgb(42, 123, 211);;animation:none"></path>
<path fill="rgb(43, 110, 194)" d="M 1530 0 L 1279.02 0 C 452.427 0 33.071 746 33.071 746 L 1530 746 Z" style="fill:rgb(43, 110, 194);;animation:none"></path>
<path fill="rgb(45, 98, 177)" d="M 1530 0 L 1331.94 0 C 596.061 0 78.7559 746 78.7559 746 L 1530 746 Z" style="fill:rgb(45, 98, 177);;animation:none"></path>
<path fill="rgb(47, 86, 160)" d="M 1530 0 L 1370.82 0 C 724.851 0 145.765 746 145.765 746 L 1530 746 Z" style="fill:rgb(47, 86, 160);;animation:none"></path>
<path fill="rgb(48, 74, 143)" d="M 1530 0 L 1401.75 0 C 843.622 0 234.985 746 234.985 746 L 1530 746 Z" style="fill:rgb(48, 74, 143);;animation:none"></path>
<path fill="rgb(50, 61, 125)" d="M 1530 0 L 1427.54 0 C 954.973 0 347.126 746 347.126 746 L 1530 746 Z" style="fill:rgb(50, 61, 125);;animation:none"></path>
<path fill="rgb(51, 49, 108)" d="M 1530 0 L 1449.72 0 C 1060.51 0 482.785 746 482.785 746 L 1530 746 Z" style="fill:rgb(51, 49, 108);;animation:none"></path>
<path fill="rgb(53, 37, 91)" d="M 1530 0 L 1469.2 0 C 1161.31 0 642.475 746 642.475 746 L 1530 746 Z" style="fill:rgb(53, 37, 91);;animation:none"></path>
<path fill="rgb(55, 25, 74)" d="M 1530 0 L 1486.61 0 C 1258.15 0 826.652 746 826.652 746 L 1530 746 Z" style="fill:rgb(55, 25, 74);;animation:none"></path>
<path fill="rgb(56, 12, 57)" d="M 1530 0 L 1502.36 0 C 1351.6 0 1035.72 746 1035.72 746 L 1530 746 Z" style="fill:rgb(56, 12, 57);;animation:none"></path>
<path fill="rgb(58, 0, 40)" d="M 1530 0 L 1516.74 0 C 1442.1 0 1270.06 746 1270.06 746 L 1530 746 Z" style="fill:rgb(58, 0, 40);;animation:none"></path></g>
<g></g></g><!-- [ldio] generated by https://loading.io --></svg>